<?xml version="1.0" standalone="no"?>
<!DOCTYPE svg PUBLIC "-//W3C//DTD SVG 20010904//EN"
 "http://www.w3.org/TR/2001/REC-SVG-20010904/DTD/svg10.dtd">
<svg version="1.0" xmlns="http://www.w3.org/2000/svg"
 width="212.000000pt" height="60.000000pt" viewBox="0 0 212.000000 60.000000"
 preserveAspectRatio="xMidYMid meet">

<g transform="translate(0.000000,60.000000) scale(0.100000,-0.100000)"
fill="#000000" stroke="none">
<path d="M1025 408 c-24 -63 -75 -225 -75 -236 0 -7 7 -12 17 -10 11 2 28 38
54 113 20 61 39 103 42 95 3 -8 20 -58 37 -110 35 -105 42 -117 57 -98 8 9 -1
47 -31 133 -38 112 -43 120 -69 123 -16 2 -29 -2 -32 -10z"/>
<path d="M1210 415 c-1 -3 -1 -57 -1 -120 0 -63 0 -120 1 -125 0 -14 155 -9
155 5 0 6 -28 11 -62 13 l-63 3 0 114 c0 96 -3 115 -15 115 -8 0 -15 -2 -15
-5z"/>
<path d="M1409 416 c-2 -2 -3 -61 -1 -131 l3 -126 77 3 c93 4 103 22 15 26
l-63 3 0 114 c0 89 -3 115 -13 115 -8 0 -16 -2 -18 -4z"/>
<path d="M1610 290 c0 -120 2 -131 18 -128 15 3 17 17 17 128 0 111 -2 125
-17 128 -16 3 -18 -8 -18 -128z"/>
<path d="M1710 290 l0 -130 75 0 c60 0 75 3 75 15 0 12 -13 15 -55 15 l-55 0
0 99 0 100 53 3 c77 4 63 23 -20 26 l-73 3 0 -131z"/>
<path d="M1926 404 c-19 -19 -21 -97 -3 -112 7 -6 34 -12 61 -14 55 -3 73 -20
62 -61 -6 -24 -11 -27 -51 -27 -29 0 -45 5 -46 13 -1 6 -2 19 -3 27 0 8 -9 16
-18 18 -15 3 -18 -4 -18 -32 0 -44 20 -56 89 -56 62 0 91 24 91 73 -1 51 -22
70 -84 75 -51 4 -54 6 -58 33 -6 36 7 49 48 49 33 0 60 -22 50 -39 -9 -13 9
-22 28 -15 22 8 20 40 -4 64 -26 26 -120 28 -144 4z"/>
<path d="M72 344 c-19 -13 -22 -24 -22 -83 0 -83 15 -101 82 -101 49 0 85 27
75 55 -9 21 -28 19 -34 -5 -4 -16 -14 -20 -45 -20 l-39 0 3 68 3 67 33 3 c26
3 34 -1 41 -20 12 -31 6 -38 -30 -38 -20 0 -29 -4 -27 -12 5 -16 41 -22 74
-14 20 5 24 13 24 46 0 47 -26 70 -80 70 -20 0 -46 -7 -58 -16z"/>
<path d="M280 340 c-16 -16 -20 -33 -20 -83 0 -78 16 -97 82 -97 50 0 78 21
78 59 0 30 -34 24 -38 -7 -3 -19 -10 -22 -43 -22 l-40 0 3 68 3 67 35 0 c29 0
36 -4 38 -22 5 -33 42 -31 42 1 0 52 -99 77 -140 36z"/>
<path d="M493 345 c-20 -14 -23 -25 -23 -84 0 -83 15 -101 83 -101 36 0 49 5
61 22 20 28 21 127 3 152 -19 25 -95 32 -124 11z m92 -85 l0 -65 -34 -3 c-41
-4 -51 8 -51 69 0 53 14 71 55 67 30 -3 30 -3 30 -68z"/>
<path d="M700 343 c-17 -12 -20 -25 -20 -99 0 -68 3 -84 15 -84 12 0 15 16 15
80 0 76 1 80 24 86 40 10 46 -2 46 -87 0 -71 2 -80 18 -77 14 3 17 15 18 77 0
78 13 101 48 88 13 -5 16 -22 16 -87 0 -72 2 -81 18 -78 14 3 17 16 20 80 4
105 -6 115 -116 115 -54 0 -88 -4 -102 -14z"/>
<path d="M1784 305 c-4 -9 -2 -21 4 -27 15 -15 44 -1 40 19 -4 23 -36 29 -44
8z"/>
<path d="M1034 249 c-3 -6 0 -17 7 -25 18 -17 44 -2 36 20 -7 18 -33 21 -43 5z"/>
</g>
</svg>
