<?xml version="1.0" standalone="no"?>
<!DOCTYPE svg PUBLIC "-//W3C//DTD SVG 20010904//EN"
 "http://www.w3.org/TR/2001/REC-SVG-20010904/DTD/svg10.dtd">
<svg version="1.0" xmlns="http://www.w3.org/2000/svg"
 width="400.000000pt" height="225.000000pt" viewBox="0 0 400.000000 225.000000"
 preserveAspectRatio="xMidYMid meet">

<g transform="translate(0.000000,225.000000) scale(0.100000,-0.100000)"
fill="#000000" stroke="none">
<path d="M1847 2037 c-73 -68 -93 -97 -64 -97 6 0 43 30 80 66 l69 65 205
-198 c204 -196 205 -197 182 -213 -13 -8 -50 -36 -83 -62 -33 -27 -62 -48 -66
-48 -3 0 -53 42 -109 93 -57 50 -109 96 -116 101 -10 7 -45 -20 -130 -99
l-116 -108 -32 23 c-18 13 -56 44 -85 69 l-52 45 55 56 c50 51 67 80 47 80 -4
0 -32 -25 -62 -55 -30 -30 -59 -55 -65 -55 -5 0 -50 32 -98 70 -49 39 -93 68
-97 65 -5 -3 -9 -161 -10 -350 l0 -345 630 0 630 0 0 350 c0 193 -3 350 -8
350 -4 0 -47 -32 -96 -71 l-89 -71 -66 64 c-36 34 -130 126 -209 203 -78 77
-148 141 -155 142 -6 2 -47 -30 -90 -70z m-377 -372 c0 -6 -29 -39 -64 -74
l-65 -64 -3 122 c-2 68 -1 124 1 126 6 7 131 -98 131 -110z m1060 -1 l0 -115
-65 57 c-36 32 -65 62 -65 68 0 6 15 21 34 34 18 12 43 34 56 47 13 14 27 25
32 25 4 0 8 -52 8 -116z m-494 -46 c96 -86 116 -108 97 -108 -5 0 -53 -36
-108 -80 -84 -67 -102 -77 -115 -66 -15 13 -171 137 -180 144 -4 3 187 196
198 201 2 0 50 -41 108 -91z m412 -44 l82 -76 0 -164 0 -164 -189 0 -190 0
-95 77 c-53 42 -96 80 -96 84 0 3 10 13 23 22 12 8 59 44 105 81 80 64 84 66
100 48 37 -41 190 -172 201 -172 29 0 3 36 -86 115 -54 48 -98 91 -98 95 0 7
145 128 156 129 3 1 42 -33 87 -75z m-857 4 c43 -35 79 -65 78 -68 0 -3 -74
-74 -162 -157 l-162 -153 -3 137 -3 136 78 82 c43 45 82 83 86 84 5 0 44 -27
88 -61z m207 -167 c50 -41 92 -78 92 -81 0 -4 -18 -21 -40 -39 -70 -56 -41
-73 32 -18 l43 33 72 -55 c39 -31 74 -61 77 -67 3 -8 -92 -11 -350 -11 -195 0
-354 2 -354 3 0 1 33 33 72 70 40 38 113 108 163 156 49 48 92 87 95 85 3 -1
47 -35 98 -76z"/>
<path d="M1670 1920 c-33 -33 -26 -76 18 -99 26 -14 55 -2 72 29 15 28 13 38
-15 65 -29 30 -49 31 -75 5z m64 -32 c14 -22 -12 -52 -37 -42 -17 6 -23 44
-10 58 11 11 35 3 47 -16z"/>
<path d="M1422 1003 c3 -17 36 -18 493 -21 270 -1 500 0 513 3 12 3 22 12 22
20 0 13 -67 15 -516 15 -486 0 -515 -1 -512 -17z"/>
<path d="M1088 533 l-38 -4 0 -170 0 -169 84 0 c46 0 104 -3 130 -6 l46 -7 0
37 0 36 -89 0 -89 0 -4 30 c-3 16 0 34 6 40 5 5 43 10 84 10 l73 0 -3 33 -3
32 -80 5 c-77 5 -80 6 -83 31 -4 33 14 39 116 39 l73 0 -3 33 -3 32 -90 1
c-49 1 -107 -1 -127 -3z"/>
<path d="M1663 528 c-12 -16 -143 -326 -143 -339 0 -11 50 -12 66 -1 5 4 16
22 23 40 l13 32 78 0 c77 0 78 0 85 -27 4 -16 11 -34 17 -40 11 -14 64 -18 72
-5 2 4 -28 84 -68 177 -69 163 -73 170 -102 173 -17 2 -35 -3 -41 -10z m56
-135 c7 -21 15 -44 17 -50 4 -9 -6 -13 -35 -13 -28 0 -41 4 -41 14 0 21 29 86
39 86 4 0 13 -17 20 -37z"/>
<path d="M2138 524 c-31 -17 -58 -61 -58 -97 0 -41 36 -75 98 -93 72 -22 101
-46 82 -68 -18 -22 -76 -20 -115 4 l-33 20 -22 -27 -21 -28 21 -17 c31 -25 98
-41 148 -35 63 7 102 47 102 105 0 55 -24 78 -112 108 -42 14 -64 27 -66 39
-8 36 47 46 100 19 31 -16 33 -16 50 6 26 32 23 39 -24 60 -51 23 -113 25
-150 4z"/>
<path d="M2665 523 c-72 -38 -107 -91 -107 -163 0 -62 25 -112 73 -146 46 -32
119 -42 173 -24 113 37 160 173 93 271 -46 69 -162 99 -232 62z m138 -73 c36
-28 52 -81 37 -124 -15 -45 -41 -67 -89 -73 -36 -5 -44 -2 -76 30 -29 29 -35
42 -35 77 0 34 6 48 34 76 40 40 89 46 129 14z"/>
<path d="M3160 360 l0 -180 35 0 35 0 0 105 c0 58 3 105 8 105 4 0 41 -45 82
-99 72 -96 100 -118 134 -105 14 5 16 30 16 174 l0 168 -30 7 c-16 4 -34 4
-40 0 -6 -3 -10 -47 -10 -101 0 -52 -3 -94 -7 -94 -5 0 -39 41 -78 91 -72 94
-89 109 -124 109 -20 0 -21 -5 -21 -180z"/>
<path d="M532 358 l3 -173 29 -3 c36 -4 46 10 46 71 0 43 2 47 25 47 18 0 33
-12 54 -42 48 -69 59 -78 96 -78 19 0 35 5 35 11 0 7 -16 34 -36 62 l-36 50
25 21 c59 50 64 121 13 172 l-34 34 -111 0 -111 0 2 -172z m196 90 c17 -17 15
-53 -4 -69 -8 -7 -38 -14 -65 -16 l-49 -3 0 50 0 50 53 0 c29 0 58 -5 65 -12z"/>
</g>
</svg>
