<?xml version="1.0" standalone="no"?>
<!DOCTYPE svg PUBLIC "-//W3C//DTD SVG 20010904//EN"
 "http://www.w3.org/TR/2001/REC-SVG-20010904/DTD/svg10.dtd">
<svg version="1.0" xmlns="http://www.w3.org/2000/svg"
 width="730.000000pt" height="411.000000pt" viewBox="0 0 730.000000 411.000000"
 preserveAspectRatio="xMidYMid meet">

<g transform="translate(0.000000,411.000000) scale(0.100000,-0.100000)"
fill="#000000" stroke="none">
<path d="M4040 3100 l0 -330 -77 0 c-204 -1 -310 -38 -417 -144 -73 -72 -110
-132 -131 -212 -23 -89 -22 -877 1 -955 67 -224 251 -350 494 -336 204 11 342
112 423 309 22 53 22 54 25 1026 l2 972 -160 0 -160 0 0 -330z m-2 -1112 c-3
-435 -4 -454 -23 -480 -58 -79 -220 -76 -279 5 -20 27 -21 43 -24 395 -2 202
0 382 3 400 7 39 59 100 100 118 18 8 70 13 128 14 l98 0 -3 -452z"/>
<path d="M4590 3265 l0 -165 160 0 160 0 0 165 0 165 -160 0 -160 0 0 -165z"/>
<path d="M2274 3087 c-2 -7 -3 -82 -2 -165 l3 -153 353 1 c268 0 352 -2 352
-12 0 -6 -39 -77 -86 -157 -48 -80 -196 -330 -329 -556 -133 -225 -268 -453
-299 -505 l-56 -94 0 -158 0 -158 550 0 550 0 0 155 0 155 -366 0 c-296 0
-365 2 -361 13 3 7 64 114 137 237 73 124 161 272 195 330 34 58 124 211 200
340 76 129 162 275 191 323 l54 88 0 165 0 164 -540 0 c-433 0 -542 -3 -546
-13z"/>
<path d="M1523 2769 c-89 -28 -179 -93 -238 -171 -93 -123 -89 -100 -93 -617
-2 -292 1 -472 8 -503 25 -120 124 -250 236 -310 140 -76 309 -76 457 -2 70
36 166 135 201 209 31 65 63 203 53 229 -6 14 -26 16 -159 14 l-153 -3 -6 -43
c-10 -79 -69 -133 -151 -139 -110 -8 -181 72 -176 196 l3 63 166 68 c92 37
193 83 225 103 168 102 254 248 254 431 0 233 -135 414 -358 482 -67 20 -194
17 -269 -7z m211 -313 c72 -30 113 -129 87 -209 -17 -50 -46 -84 -105 -121
-52 -33 -188 -96 -206 -96 -6 0 -10 57 -10 150 0 183 11 218 79 261 50 33 102
37 155 15z"/>
<path d="M5430 2774 c-121 -32 -214 -97 -279 -194 -46 -69 -80 -169 -84 -245
l-2 -50 158 -3 157 -3 0 31 c0 43 33 104 71 131 70 49 179 29 230 -43 20 -27
23 -45 24 -112 l0 -79 -150 -61 c-215 -89 -270 -120 -350 -201 -85 -85 -121
-155 -137 -265 -37 -253 102 -480 336 -552 56 -17 86 -20 167 -16 92 5 106 8
183 46 134 67 222 178 261 327 12 48 15 134 15 472 0 405 0 414 -23 486 -81
252 -332 397 -577 331z m280 -1059 c0 -177 -8 -207 -65 -251 -28 -21 -51 -29
-93 -32 -51 -3 -62 0 -98 26 -54 40 -78 91 -71 153 11 91 69 149 212 214 55
24 103 45 108 45 4 0 7 -70 7 -155z"/>
<path d="M4592 1948 l3 -823 158 -3 157 -3 0 826 0 825 -160 0 -160 0 2 -822z"/>
</g>
</svg>
