<?xml version="1.0" standalone="no"?>
<!DOCTYPE svg PUBLIC "-//W3C//DTD SVG 20010904//EN"
 "http://www.w3.org/TR/2001/REC-SVG-20010904/DTD/svg10.dtd">
<svg version="1.0" xmlns="http://www.w3.org/2000/svg"
 width="960.000000pt" height="960.000000pt" viewBox="0 0 960.000000 960.000000"
 preserveAspectRatio="xMidYMid meet">

<g transform="translate(0.000000,960.000000) scale(0.100000,-0.100000)"
fill="#000000" stroke="none">
<path d="M4723 5370 c-29 -3 -60 -13 -71 -24 -14 -12 -76 -186 -188 -524 -185
-563 -187 -568 -173 -594 23 -43 107 -62 141 -31 15 13 142 388 314 926 16 48
31 87 34 87 4 0 79 -224 169 -497 89 -274 169 -506 178 -515 32 -35 132 -8
147 40 7 21 -323 1049 -349 1089 -8 12 -23 26 -32 31 -25 13 -108 19 -170 12z"/>
<path d="M5483 5362 c-30 -19 -33 -70 -33 -573 0 -543 2 -563 48 -588 14 -7
129 -11 335 -11 354 0 340 -3 340 75 0 77 7 75 -284 75 l-258 0 -3 501 c-3
482 -4 501 -22 515 -21 15 -103 19 -123 6z"/>
<path d="M6377 5352 c-15 -17 -17 -70 -17 -556 0 -579 1 -586 52 -600 13 -3
161 -6 330 -6 347 0 338 -2 338 75 0 76 3 75 -291 75 l-259 0 0 498 c0 471 -1
500 -18 515 -26 24 -113 23 -135 -1z"/>
<path d="M7290 5350 c-20 -20 -20 -33 -20 -569 0 -508 1 -550 18 -569 37 -43
140 -31 153 18 12 43 10 1065 -2 1097 -14 37 -25 43 -81 43 -35 0 -54 -6 -68
-20z"/>
<path d="M7777 5363 c-46 -12 -47 -30 -47 -583 0 -562 1 -570 52 -584 13 -3
154 -6 315 -6 330 0 323 -2 323 74 0 76 -2 76 -278 76 l-242 0 0 440 0 440
237 2 238 3 13 28 c8 16 11 40 7 57 -13 61 -10 60 -318 59 -155 -1 -290 -3
-300 -6z"/>
<path d="M8810 5361 c-86 -27 -145 -79 -169 -150 -14 -44 -14 -288 0 -332 19
-55 56 -97 112 -126 50 -27 58 -28 237 -31 102 -1 195 -5 207 -7 41 -9 53 -53
53 -184 0 -130 -9 -163 -47 -180 -30 -14 -311 -15 -347 -1 -36 13 -47 42 -54
132 -5 87 -17 107 -60 109 -104 4 -115 -9 -110 -136 2 -77 8 -109 24 -140 23
-44 95 -99 152 -115 47 -13 396 -13 442 0 61 17 127 66 152 112 21 40 23 55
23 219 l0 176 -30 49 c-24 37 -45 56 -90 79 -58 30 -60 30 -258 35 -192 5
-199 6 -217 28 -24 30 -34 97 -27 187 6 79 18 108 54 124 14 6 90 11 178 11
148 0 155 -1 182 -24 24 -21 28 -33 33 -100 8 -96 24 -116 92 -116 36 0 53 5
69 21 19 19 21 30 17 113 -5 108 -29 163 -86 201 -74 49 -110 55 -316 54 -105
0 -202 -4 -216 -8z"/>
<path d="M352 5054 c-60 -30 -95 -71 -111 -129 -14 -53 -15 -512 0 -569 14
-55 59 -110 112 -139 39 -20 55 -22 227 -22 174 0 188 1 232 24 51 25 103 77
119 118 5 13 9 48 9 78 0 75 -21 92 -100 86 -34 -3 -60 -36 -60 -78 0 -25 -8
-43 -29 -64 -29 -29 -30 -29 -156 -29 -143 0 -176 10 -194 61 -14 42 -15 441
0 492 15 54 51 67 182 67 173 0 197 -20 197 -160 l0 -80 -131 0 c-72 0 -139
-5 -150 -10 -14 -8 -19 -21 -19 -55 0 -75 4 -77 227 -73 249 4 233 -10 233
201 0 174 -13 216 -78 259 -65 43 -96 48 -282 48 -170 0 -178 -1 -228 -26z"/>
<path d="M1305 5058 c-56 -29 -85 -57 -106 -103 -17 -36 -19 -69 -19 -315 0
-247 2 -279 19 -315 24 -51 51 -79 104 -107 39 -22 54 -23 227 -23 182 0 186
0 237 27 89 47 123 112 123 233 0 86 -16 108 -80 108 -59 0 -80 -23 -80 -90 0
-69 -21 -120 -55 -133 -34 -13 -246 -13 -279 0 -50 19 -56 48 -56 300 0 257 5
279 61 299 42 14 227 14 269 0 40 -14 60 -58 60 -132 0 -67 20 -90 81 -89 64
1 79 21 79 106 0 129 -33 190 -125 232 -47 22 -61 24 -235 23 -167 0 -189 -2
-225 -21z"/>
<path d="M2254 5056 c-66 -31 -110 -85 -125 -154 -7 -34 -10 -144 -7 -300 3
-242 3 -248 28 -292 32 -58 111 -106 186 -116 91 -11 314 1 355 19 54 24 100
66 120 112 17 36 19 70 19 311 l0 270 -27 55 c-25 47 -36 58 -92 87 l-64 32
-171 0 c-159 0 -175 -2 -222 -24z m348 -117 c64 -17 68 -35 68 -299 0 -252 -6
-281 -56 -300 -35 -14 -248 -12 -277 1 -48 22 -52 44 -52 300 0 310 -3 306
185 308 52 0 112 -4 132 -10z"/>
<path d="M3191 5053 c-30 -15 -68 -45 -85 -66 l-31 -39 -3 -366 c-3 -365 -3
-367 19 -384 29 -24 80 -23 113 3 l26 20 0 325 c0 372 1 375 73 395 57 15 162
6 187 -16 35 -32 40 -82 40 -402 0 -311 0 -312 22 -327 31 -22 80 -20 112 5
l26 20 0 325 c0 372 1 375 73 395 51 14 161 6 184 -12 39 -33 43 -66 43 -398
0 -319 0 -320 22 -335 32 -23 94 -20 118 4 19 19 20 33 20 361 0 323 -1 343
-21 389 -13 31 -34 58 -57 74 -71 49 -103 56 -240 56 -116 0 -133 -2 -176 -24
l-48 -24 -42 21 c-35 19 -60 22 -181 25 -137 3 -141 3 -194 -25z"/>
<path d="M8120 4917 c-41 -14 -80 -68 -80 -111 0 -61 63 -126 120 -126 36 0
90 31 105 61 24 45 19 103 -10 138 -23 27 -38 35 -85 46 -8 2 -31 -2 -50 -8z"/>
<path d="M4705 4627 c-30 -30 -35 -42 -35 -82 0 -38 5 -52 29 -76 28 -27 48
-34 96 -30 60 5 100 60 92 124 -8 55 -42 88 -101 94 -42 5 -48 3 -81 -30z"/>
</g>
</svg>
