<?xml version="1.0" standalone="no"?>
<!DOCTYPE svg PUBLIC "-//W3C//DTD SVG 20010904//EN"
 "http://www.w3.org/TR/2001/REC-SVG-20010904/DTD/svg10.dtd">
<svg version="1.0" xmlns="http://www.w3.org/2000/svg"
 width="171.000000pt" height="96.000000pt" viewBox="0 0 171.000000 96.000000"
 preserveAspectRatio="xMidYMid meet">

<g transform="translate(0.000000,96.000000) scale(0.100000,-0.100000)"
fill="#000000" stroke="none">
<path d="M128 554 c-49 -26 -71 -91 -47 -137 20 -39 51 -57 102 -57 73 0 87
11 87 70 l0 50 -45 0 c-38 0 -45 -3 -45 -19 0 -13 8 -21 23 -23 31 -4 28 -32
-5 -36 -59 -7 -94 47 -63 95 15 22 22 24 68 21 41 -2 52 0 55 13 7 34 -81 50
-130 23z"/>
<path d="M1020 465 l0 -105 25 0 c24 0 25 3 25 54 0 53 10 68 38 59 7 -3 12
-24 12 -59 0 -51 1 -54 25 -54 24 0 25 3 25 58 0 77 -20 106 -66 99 -32 -5
-34 -4 -34 24 0 24 -4 29 -25 29 l-25 0 0 -105z"/>
<path d="M1430 550 c0 -15 7 -20 25 -20 18 0 25 5 25 20 0 15 -7 20 -25 20
-18 0 -25 -5 -25 -20z"/>
<path d="M815 547 c-3 -7 -5 -52 -3 -98 2 -67 6 -84 18 -84 12 0 15 17 15 94
0 67 -4 96 -12 98 -7 3 -15 -2 -18 -10z"/>
<path d="M893 523 c-12 -27 -14 -38 -5 -41 7 -2 12 -22 12 -46 0 -55 17 -79
55 -74 36 4 49 38 16 38 -30 0 -31 69 -1 77 11 3 20 14 20 24 0 12 -7 19 -20
19 -13 0 -20 7 -20 20 0 35 -37 24 -57 -17z"/>
<path d="M1210 460 l0 -100 25 0 c23 0 25 4 25 40 l0 40 40 0 40 0 0 -40 c0
-36 3 -40 25 -40 l25 0 0 100 c0 99 0 100 -24 100 -21 0 -25 -5 -28 -37 -3
-36 -5 -38 -40 -41 l-38 -3 0 40 c0 37 -2 41 -25 41 l-25 0 0 -100z"/>
<path d="M1530 540 c0 -11 -4 -20 -10 -20 -5 0 -10 -9 -10 -19 0 -11 5 -23 10
-26 6 -3 10 -24 10 -45 0 -58 8 -70 46 -70 27 0 34 4 34 20 0 11 -7 20 -15 20
-11 0 -15 11 -15 39 0 30 4 40 20 44 25 7 26 27 1 34 -11 3 -21 13 -24 24 -7
26 -47 26 -47 -1z"/>
<path d="M726 515 c-9 -25 -7 -128 4 -145 19 -30 31 5 28 80 -3 70 -18 101
-32 65z"/>
<path d="M310 440 c0 -78 1 -80 24 -80 23 0 25 5 28 48 2 38 7 49 26 57 13 6
22 18 22 32 0 24 -19 30 -37 12 -8 -8 -13 -8 -17 0 -4 6 -16 11 -27 11 -17 0
-19 -7 -19 -80z"/>
<path d="M448 490 c-25 -26 -29 -36 -24 -63 8 -43 39 -67 86 -67 47 0 78 24
86 67 5 27 1 37 -24 63 -21 21 -40 30 -62 30 -22 0 -41 -9 -62 -30z m92 -25
c7 -8 10 -25 6 -40 -5 -20 -13 -25 -36 -25 -23 0 -31 5 -36 25 -7 29 10 55 36
55 10 0 23 -7 30 -15z"/>
<path d="M1437 513 c-4 -3 -7 -39 -7 -80 0 -71 1 -73 25 -73 25 0 25 1 25 80
0 71 -2 80 -18 80 -10 0 -22 -3 -25 -7z"/>
<path d="M634 497 c-3 -8 -4 -41 -2 -73 2 -44 7 -59 18 -59 12 0 15 14 15 69
0 47 -4 71 -12 73 -7 3 -15 -2 -19 -10z"/>
</g>
</svg>
