<?xml version="1.0" standalone="no"?>
<!DOCTYPE svg PUBLIC "-//W3C//DTD SVG 20010904//EN"
 "http://www.w3.org/TR/2001/REC-SVG-20010904/DTD/svg10.dtd">
<svg version="1.0" xmlns="http://www.w3.org/2000/svg"
 width="212.000000pt" height="60.000000pt" viewBox="0 0 212.000000 60.000000"
 preserveAspectRatio="xMidYMid meet">

<g transform="translate(0.000000,60.000000) scale(0.100000,-0.100000)"
fill="#000000" stroke="none">
<path d="M1727 512 c-38 -40 -34 -49 5 -13 l33 31 83 -83 83 -82 -33 -27 c-18
-15 -35 -28 -38 -28 -3 0 -25 20 -50 44 l-43 45 -50 -45 c-27 -24 -52 -44 -56
-44 -3 0 -19 12 -35 26 l-28 25 21 23 c31 33 26 44 -7 13 l-28 -27 -34 30
c-19 16 -38 29 -42 30 -5 0 -8 -65 -8 -145 l0 -145 260 0 260 0 0 146 0 146
-34 -26 c-19 -14 -38 -26 -43 -26 -5 0 -44 36 -88 80 -44 44 -84 80 -90 80 -6
0 -23 -13 -38 -28z m-157 -150 c0 -8 -42 -52 -50 -52 -4 0 -7 22 -7 50 l0 49
28 -20 c16 -11 29 -23 29 -27z m440 -4 l0 -53 -27 27 -27 27 24 26 c13 14 25
25 27 25 2 0 3 -24 3 -52z m-162 -58 c1 -3 -19 -20 -44 -38 l-45 -32 -39 32
c-22 17 -40 34 -40 37 0 3 19 22 43 42 l42 37 42 -37 c22 -20 41 -38 41 -41z
m-226 23 l28 -27 -62 -63 c-34 -35 -66 -63 -70 -63 -4 0 -8 23 -8 52 0 47 4
56 37 90 20 21 39 38 42 38 3 0 18 -12 33 -27z m354 1 c33 -26 34 -29 34 -95
l0 -69 -81 0 c-72 0 -85 3 -120 28 -21 15 -38 29 -38 32 0 5 160 129 167 130
2 0 19 -12 38 -26z m-236 -104 c0 -4 -7 -13 -15 -20 -9 -7 -13 -15 -10 -18 3
-3 14 3 24 12 19 17 21 17 50 -5 17 -13 31 -25 31 -28 0 -3 -65 -6 -145 -6
-80 0 -145 1 -145 3 0 1 30 31 67 66 l68 64 37 -30 c21 -16 38 -33 38 -38z"/>
<path d="M1905 251 c22 -21 42 -37 44 -35 7 6 -61 74 -73 74 -6 0 7 -18 29
-39z"/>
<path d="M1644 459 c-3 -6 1 -18 9 -27 13 -13 19 -13 32 -2 12 10 13 16 4 26
-14 17 -35 18 -45 3z m36 -8 c0 -6 -4 -13 -10 -16 -5 -3 -10 1 -10 9 0 9 5 16
10 16 6 0 10 -4 10 -9z"/>
<path d="M80 265 c0 -60 3 -75 15 -75 9 0 15 9 15 25 0 15 6 25 14 25 7 0 21
-11 30 -25 9 -14 24 -25 32 -25 15 0 15 2 0 25 -15 23 -15 27 -1 41 37 37 0
84 -67 84 l-38 0 0 -75z m85 25 c0 -9 -11 -16 -27 -18 -23 -3 -28 1 -28 18 0
17 5 21 28 18 16 -2 27 -9 27 -18z"/>
<path d="M300 336 c-3 -2 -3 -36 -2 -76 l4 -71 49 3 c58 4 70 22 17 26 -48 4
-52 29 -5 34 17 2 32 8 32 13 0 6 -15 11 -32 13 -47 5 -43 30 5 34 20 2 37 8
37 13 0 10 -96 20 -105 11z"/>
<path d="M524 273 c-16 -37 -30 -71 -32 -75 -8 -17 28 -7 38 11 12 24 58 22
72 -2 10 -20 43 -23 35 -4 -33 82 -62 137 -72 137 -7 0 -25 -30 -41 -67z m56
-9 c0 -8 -7 -14 -15 -14 -15 0 -21 21 -9 33 10 9 24 -2 24 -19z"/>
<path d="M734 315 c-19 -29 -12 -43 32 -61 45 -19 45 -38 -1 -31 -40 6 -55 -7
-26 -22 46 -25 91 -7 91 37 0 18 -9 27 -40 39 -44 18 -44 38 1 29 34 -7 47 9
20 23 -32 18 -59 13 -77 -14z"/>
<path d="M953 320 c-30 -27 -36 -55 -21 -87 26 -55 105 -56 134 -2 38 74 -53
145 -113 89z m75 -22 c16 -16 15 -53 -3 -68 -19 -16 -45 -10 -61 15 -26 39 31
86 64 53z"/>
<path d="M1170 265 c0 -60 3 -75 15 -75 11 0 15 11 15 40 0 22 4 40 9 40 4 0
21 -18 36 -40 43 -61 55 -53 55 35 0 60 -3 75 -15 75 -11 0 -15 -12 -15 -42
l-1 -43 -37 43 c-53 61 -62 56 -62 -33z"/>
<path d="M1652 83 c59 -2 158 -2 220 0 62 1 14 3 -107 3 -121 0 -172 -2 -113
-3z"/>
</g>
</svg>
