<?xml version="1.0" standalone="no"?>
<!DOCTYPE svg PUBLIC "-//W3C//DTD SVG 20010904//EN"
 "http://www.w3.org/TR/2001/REC-SVG-20010904/DTD/svg10.dtd">
<svg version="1.0" xmlns="http://www.w3.org/2000/svg"
 width="212.000000pt" height="60.000000pt" viewBox="0 0 212.000000 60.000000"
 preserveAspectRatio="xMidYMid meet">

<g transform="translate(0.000000,60.000000) scale(0.100000,-0.100000)"
fill="#000000" stroke="none">
<path d="M1171 453 l3 -48 -59 -5 c-33 -3 -75 -13 -92 -23 -33 -17 -33 -18
-33 -91 0 -86 10 -100 86 -116 62 -13 138 1 171 32 22 20 23 29 23 160 l0 138
-51 0 -51 0 3 -47z m1 -161 c0 -35 -4 -68 -10 -74 -5 -5 -25 -8 -43 -6 l-34 3
-3 67 c-3 73 1 78 62 75 28 -2 28 -3 28 -65z"/>
<path d="M1332 478 c3 -20 9 -23 47 -23 38 0 44 3 47 23 4 20 0 22 -47 22 -47
0 -50 -2 -47 -22z"/>
<path d="M660 430 c0 -18 7 -20 88 -21 48 -1 93 -1 100 0 27 4 7 -18 -98 -108
-153 -129 -152 -131 50 -131 152 0 160 1 160 20 0 18 -8 20 -105 22 l-106 3
111 93 c85 72 110 99 110 117 l0 25 -155 0 c-148 0 -155 -1 -155 -20z"/>
<path d="M420 399 c-61 -18 -70 -33 -70 -115 0 -66 2 -74 25 -92 65 -51 245
-26 245 35 0 19 -74 17 -90 -2 -16 -19 -74 -19 -90 0 -10 12 -8 16 11 24 13 4
42 12 65 15 22 4 55 16 73 27 92 56 -47 144 -169 108z m108 -60 c3 -17 -36
-39 -72 -39 -23 0 -29 21 -12 48 11 19 80 11 84 -9z"/>
<path d="M1575 406 c-5 -3 -21 -7 -35 -10 -27 -6 -70 -40 -70 -56 0 -16 86
-12 100 5 20 25 90 17 90 -10 0 -8 -29 -19 -73 -29 -117 -26 -150 -78 -77
-120 49 -29 151 -29 200 0 33 19 35 23 38 79 4 79 -3 102 -37 119 -28 15 -117
29 -136 22z m85 -161 c0 -28 -33 -42 -76 -31 -30 8 -27 26 7 43 41 21 69 17
69 -12z"/>
<path d="M1332 283 l3 -118 43 0 43 0 2 118 2 117 -48 0 -48 0 3 -117z"/>
</g>
</svg>
