<?xml version="1.0" standalone="no"?>
<!DOCTYPE svg PUBLIC "-//W3C//DTD SVG 20010904//EN"
 "http://www.w3.org/TR/2001/REC-SVG-20010904/DTD/svg10.dtd">
<svg version="1.0" xmlns="http://www.w3.org/2000/svg"
 width="212.000000pt" height="60.000000pt" viewBox="0 0 212.000000 60.000000"
 preserveAspectRatio="xMidYMid meet">

<g transform="translate(0.000000,60.000000) scale(0.100000,-0.100000)"
fill="#000000" stroke="none">
<path d="M580 443 l0 -97 75 74 c41 41 74 82 72 90 -1 9 10 17 28 21 18 4 -12
7 -72 8 l-103 1 0 -97z"/>
<path d="M940 382 l0 -158 38 4 37 4 -1 49 c-2 67 -14 76 -14 11 0 -49 -2 -52
-25 -52 l-25 0 0 140 0 140 25 0 c23 0 25 -4 25 -46 0 -62 15 -74 91 -74 34 0
59 3 56 7 -4 4 -31 6 -60 4 -68 -3 -81 11 -75 79 l5 50 -38 0 -39 0 0 -158z"/>
<path d="M1152 478 l2 -63 3 53 c4 50 5 52 34 52 l29 0 0 -140 0 -140 -30 0
c-28 0 -29 1 -32 58 l-3 57 -65 1 -65 0 63 -3 62 -4 0 -62 0 -62 40 0 40 0 0
158 0 157 -40 0 -40 0 2 -62z"/>
<path d="M796 490 c-4 -26 -10 -38 -17 -34 -17 10 -199 -176 -199 -204 0 -20
8 -15 55 35 30 32 54 64 55 70 0 7 12 15 28 19 15 3 33 7 40 10 14 4 15 -9 6
-55 -4 -20 -12 -30 -19 -27 -7 2 -32 -16 -56 -40 l-43 -44 64 0 c118 0 170 28
170 93 0 17 -10 38 -26 54 -23 23 -24 27 -10 42 24 27 21 87 -6 105 -32 23
-35 21 -42 -24z"/>
<path d="M1043 110 c0 -30 2 -43 4 -28 2 16 2 40 0 55 -2 16 -4 3 -4 -27z"/>
<path d="M1309 115 c-11 -26 -18 -49 -15 -52 3 -3 14 14 25 38 l19 44 18 -42
c9 -24 21 -43 25 -43 12 0 -26 93 -40 98 -6 2 -21 -17 -32 -43z"/>
<path d="M580 106 c0 -44 1 -46 30 -46 23 0 33 6 42 26 16 34 0 58 -41 62 -31
3 -31 3 -31 -42z m58 3 c2 -17 -3 -29 -13 -33 -25 -9 -35 1 -35 35 0 26 3 30
23 27 15 -2 23 -11 25 -29z"/>
<path d="M750 105 c0 -25 5 -45 10 -45 6 0 10 20 10 45 0 25 -4 45 -10 45 -5
0 -10 -20 -10 -45z"/>
<path d="M864 123 c-9 -35 7 -57 43 -61 34 -3 51 21 32 44 -13 16 -39 19 -39
4 0 -5 7 -10 16 -10 20 0 13 -24 -9 -28 -8 -2 -21 6 -27 18 -14 27 0 47 38 53
21 3 19 4 -10 6 -33 1 -38 -2 -44 -26z"/>
<path d="M1153 143 c12 -3 17 -15 17 -44 0 -21 5 -39 10 -39 6 0 10 18 10 39
0 22 5 42 13 44 6 3 -6 5 -28 5 -22 0 -32 -2 -22 -5z"/>
<path d="M1470 121 c0 -48 9 -61 44 -60 29 1 29 1 6 8 -20 5 -26 14 -28 44 -4
44 -22 50 -22 8z"/>
</g>
</svg>
