<?xml version="1.0" encoding="UTF-8"?>
<svg xmlns="http://www.w3.org/2000/svg" xmlns:xlink="http://www.w3.org/1999/xlink" width="375pt" height="374.999991pt" viewBox="0 0 375 374.999991" version="1.2">
<defs>
<clipPath id="clip1">
  <path d="M 205 14.800781 L 266 14.800781 L 266 75 L 205 75 Z M 205 14.800781 "/>
</clipPath>
</defs>
<g id="surface1">
<path style=" stroke:none;fill-rule:nonzero;fill:rgb(85.488892%,93.728638%,96.859741%);fill-opacity:1;" d="M 345.808594 115 C 355.472656 103.289062 358.179688 88.027344 347.050781 77.683594 C 335.476562 66.929688 317.363281 67.496094 306.488281 78.960938 L 236.15625 154.070312 C 228.734375 162 216.527344 163.128906 207.765625 156.699219 L 204.351562 154.191406 C 194.222656 146.757812 192.65625 132.269531 200.964844 122.855469 C 210.570312 111.519531 212.597656 98.105469 201 88.800781 C 190.042969 80.007812 172.007812 80.394531 162.59375 90.816406 L 47.90625 212.554688 C 47.363281 213.136719 46.828125 213.726562 46.300781 214.324219 L 46.035156 214.613281 L 46.042969 214.621094 C 32.792969 229.722656 24.75 249.476562 24.75 271.117188 C 24.75 318.550781 63.324219 357.003906 110.910156 357.003906 C 136.941406 357.003906 160.253906 345.484375 176.054688 327.292969 L 176.054688 327.289062 C 177.007812 326.191406 177.9375 325.070312 178.835938 323.921875 Z M 345.808594 115 "/>
<g clip-path="url(#clip1)" clip-rule="nonzero">
<path style=" stroke:none;fill-rule:nonzero;fill:rgb(85.488892%,93.728638%,96.859741%);fill-opacity:1;" d="M 265.246094 44.578125 C 265.246094 45.550781 265.199219 46.519531 265.101562 47.484375 C 265.007812 48.449219 264.863281 49.410156 264.675781 50.363281 C 264.484375 51.316406 264.25 52.257812 263.964844 53.1875 C 263.683594 54.117188 263.355469 55.03125 262.980469 55.925781 C 262.609375 56.824219 262.191406 57.703125 261.734375 58.558594 C 261.273438 59.414062 260.773438 60.246094 260.234375 61.054688 C 259.691406 61.863281 259.113281 62.640625 258.492188 63.390625 C 257.875 64.144531 257.222656 64.863281 256.53125 65.546875 C 255.84375 66.234375 255.121094 66.886719 254.371094 67.503906 C 253.617188 68.121094 252.835938 68.699219 252.023438 69.238281 C 251.214844 69.777344 250.378906 70.277344 249.519531 70.734375 C 248.660156 71.191406 247.78125 71.605469 246.882812 71.976562 C 245.980469 72.347656 245.0625 72.675781 244.132812 72.957031 C 243.199219 73.242188 242.253906 73.476562 241.300781 73.664062 C 240.34375 73.855469 239.382812 73.996094 238.410156 74.09375 C 237.441406 74.1875 236.46875 74.234375 235.496094 74.234375 C 234.519531 74.234375 233.550781 74.1875 232.578125 74.09375 C 231.609375 73.996094 230.648438 73.855469 229.691406 73.664062 C 228.734375 73.476562 227.792969 73.242188 226.859375 72.957031 C 225.925781 72.675781 225.011719 72.347656 224.109375 71.976562 C 223.210938 71.605469 222.332031 71.191406 221.472656 70.734375 C 220.613281 70.277344 219.777344 69.777344 218.96875 69.238281 C 218.15625 68.699219 217.375 68.121094 216.621094 67.503906 C 215.867188 66.886719 215.148438 66.234375 214.457031 65.546875 C 213.769531 64.863281 213.117188 64.144531 212.5 63.390625 C 211.878906 62.640625 211.300781 61.863281 210.757812 61.054688 C 210.21875 60.246094 209.71875 59.414062 209.257812 58.558594 C 208.796875 57.703125 208.382812 56.824219 208.007812 55.925781 C 207.636719 55.03125 207.308594 54.117188 207.027344 53.1875 C 206.742188 52.257812 206.507812 51.316406 206.316406 50.363281 C 206.125 49.410156 205.984375 48.449219 205.886719 47.484375 C 205.792969 46.519531 205.746094 45.550781 205.746094 44.578125 C 205.746094 43.605469 205.792969 42.636719 205.886719 41.671875 C 205.984375 40.703125 206.125 39.746094 206.316406 38.792969 C 206.507812 37.839844 206.742188 36.898438 207.027344 35.96875 C 207.308594 35.039062 207.636719 34.125 208.011719 33.226562 C 208.382812 32.332031 208.796875 31.453125 209.257812 30.597656 C 209.71875 29.742188 210.21875 28.90625 210.757812 28.101562 C 211.300781 27.292969 211.878906 26.511719 212.5 25.761719 C 213.117188 25.011719 213.769531 24.292969 214.457031 23.605469 C 215.148438 22.917969 215.867188 22.269531 216.621094 21.652344 C 217.375 21.035156 218.15625 20.457031 218.96875 19.917969 C 219.777344 19.378906 220.613281 18.878906 221.472656 18.421875 C 222.332031 17.964844 223.210938 17.550781 224.109375 17.175781 C 225.011719 16.804688 225.925781 16.480469 226.859375 16.195312 C 227.792969 15.914062 228.734375 15.679688 229.691406 15.488281 C 230.648438 15.300781 231.609375 15.15625 232.578125 15.0625 C 233.550781 14.96875 234.519531 14.917969 235.496094 14.917969 C 236.46875 14.917969 237.441406 14.96875 238.410156 15.0625 C 239.382812 15.15625 240.34375 15.300781 241.300781 15.488281 C 242.253906 15.679688 243.199219 15.914062 244.132812 16.195312 C 245.0625 16.480469 245.980469 16.804688 246.882812 17.175781 C 247.78125 17.550781 248.660156 17.964844 249.519531 18.421875 C 250.378906 18.878906 251.214844 19.378906 252.023438 19.917969 C 252.835938 20.457031 253.617188 21.035156 254.371094 21.652344 C 255.121094 22.269531 255.84375 22.917969 256.53125 23.605469 C 257.222656 24.292969 257.875 25.011719 258.492188 25.761719 C 259.113281 26.511719 259.691406 27.292969 260.234375 28.101562 C 260.773438 28.90625 261.273438 29.742188 261.734375 30.597656 C 262.191406 31.453125 262.609375 32.332031 262.980469 33.226562 C 263.355469 34.125 263.683594 35.039062 263.964844 35.96875 C 264.25 36.898438 264.484375 37.839844 264.675781 38.792969 C 264.863281 39.746094 265.007812 40.703125 265.101562 41.671875 C 265.199219 42.636719 265.246094 43.605469 265.246094 44.578125 Z M 265.246094 44.578125 "/>
</g>
<path style=" stroke:none;fill-rule:nonzero;fill:rgb(73.728943%,24.708557%,29.40979%);fill-opacity:1;" d="M 261.429688 170.300781 C 256.433594 165.851562 255.988281 158.191406 260.433594 153.191406 L 272.597656 139.519531 C 277.046875 134.519531 284.703125 134.074219 289.699219 138.523438 C 294.699219 142.972656 295.144531 150.632812 290.699219 155.632812 L 278.535156 169.304688 C 274.085938 174.304688 266.429688 174.75 261.429688 170.300781 Z M 261.429688 170.300781 "/>
<path style=" stroke:none;fill-rule:nonzero;fill:rgb(73.728943%,24.708557%,29.40979%);fill-opacity:1;" d="M 44.007812 219.933594 L 57.335938 205.640625 C 66.058594 196.292969 76.71875 188.964844 88.566406 184.171875 C 94.941406 181.59375 100.660156 177.632812 105.3125 172.570312 L 136.71875 138.398438 C 142.074219 132.574219 151.023438 131.894531 157.191406 136.847656 C 163.683594 142.0625 164.707031 151.558594 159.472656 158.03125 L 138.636719 183.808594 C 135.65625 187.496094 136.964844 193.007812 141.285156 194.960938 L 141.390625 195.007812 C 143.40625 195.90625 145.648438 196.140625 147.847656 195.933594 C 152.023438 195.542969 161.332031 195.65625 168.957031 202.835938 C 177.429688 210.808594 179.878906 218.59375 180.460938 220.96875 C 180.757812 222.183594 181.222656 223.359375 181.925781 224.394531 C 183.457031 226.640625 186.457031 228.898438 191.574219 224.972656 L 229.796875 184.164062 C 234.910156 178.707031 243.40625 178.230469 249.101562 183.078125 C 255.027344 188.132812 255.703125 197.046875 250.601562 202.929688 L 216.476562 242.28125 C 206.960938 253.253906 199.246094 265.644531 193.402344 278.945312 C 186.394531 294.90625 174 318.082031 155.851562 334.207031 Z M 44.007812 219.933594 "/>
<path style=" stroke:none;fill-rule:nonzero;fill:rgb(99.609375%,35.688782%,40.388489%);fill-opacity:1;" d="M 177.261719 284.449219 C 177.25 284.371094 177.234375 284.292969 177.222656 284.214844 C 176.183594 278.445312 171.933594 273.789062 166.265625 272.300781 L 165.898438 272.203125 C 156.734375 270.074219 156.847656 264.738281 157.742188 261.726562 C 158.097656 260.523438 158.796875 259.457031 159.613281 258.507812 C 161.304688 256.542969 162.375 254.753906 163.023438 253.167969 C 164.339844 249.960938 163.148438 245.519531 160.324219 243.519531 C 153.539062 238.714844 151.824219 231.605469 151.75 225.855469 C 151.679688 220.488281 148.84375 215.554688 144.4375 212.492188 C 143.035156 211.515625 141.59375 210.582031 140.128906 209.695312 C 133.628906 205.773438 125.855469 204.4375 118.53125 206.441406 C 115.902344 207.15625 113.6875 208.054688 112.023438 208.835938 C 109.015625 210.25 105.734375 211.054688 102.414062 210.925781 C 99.792969 210.824219 96.878906 210.414062 94.820312 209.285156 C 93.210938 208.398438 91.355469 206.628906 89.609375 204.683594 C 86.582031 201.3125 81.929688 199.851562 77.554688 201.050781 C 42.742188 210.625 17.421875 243.132812 18.890625 281.332031 C 20.453125 321.863281 52.824219 355.269531 93.28125 357.984375 C 134.429688 360.746094 169.460938 332.34375 177.167969 294.046875 C 177.800781 290.890625 177.824219 287.621094 177.261719 284.449219 Z M 177.261719 284.449219 "/>
<path style=" stroke:none;fill-rule:nonzero;fill:rgb(99.609375%,35.688782%,40.388489%);fill-opacity:1;" d="M 99.714844 192.253906 C 99.707031 192.285156 99.699219 192.316406 99.691406 192.347656 C 99.074219 194.601562 100.269531 196.933594 102.476562 197.699219 C 105.207031 198.648438 110.089844 199.046875 118.253906 196.058594 C 119.921875 195.445312 120.980469 193.769531 120.824219 191.996094 L 120.8125 191.863281 C 120.359375 186.949219 115.585938 183.628906 110.769531 184.699219 C 108.914062 185.109375 106.683594 185.78125 104.34375 186.871094 C 102.097656 187.914062 100.382812 189.871094 99.714844 192.253906 Z M 99.714844 192.253906 "/>
<path style=" stroke:none;fill-rule:nonzero;fill:rgb(99.609375%,35.688782%,40.388489%);fill-opacity:1;" d="M 166.902344 216.710938 C 165.914062 217.539062 164.789062 218.621094 163.964844 219.839844 C 163.113281 221.097656 162.882812 222.675781 163.25 224.152344 L 163.476562 225.046875 C 163.90625 226.761719 165.617188 227.695312 167.292969 227.140625 C 168.699219 226.679688 170.289062 225.835938 171.425781 224.300781 C 171.695312 223.933594 171.859375 223.496094 171.917969 223.046875 C 172.058594 221.96875 172.097656 219.824219 170.828125 217.421875 C 170.074219 215.992188 168.140625 215.671875 166.902344 216.710938 Z M 166.902344 216.710938 "/>
<path style=" stroke:none;fill-rule:nonzero;fill:rgb(99.609375%,35.688782%,40.388489%);fill-opacity:1;" d="M 182.351562 247.679688 C 180.445312 250.058594 178.089844 253.175781 176.28125 256.152344 C 174.742188 258.6875 175.640625 262.078125 178.316406 263.355469 C 180.007812 264.167969 182.242188 264.820312 185.054688 264.839844 C 187.046875 264.855469 188.867188 263.671875 189.609375 261.824219 C 190.21875 260.3125 190.917969 258.296875 191.378906 256.070312 C 191.808594 254.011719 191.523438 251.863281 190.558594 249.996094 C 190.253906 249.40625 189.898438 248.761719 189.496094 248.105469 C 187.917969 245.523438 184.246094 245.316406 182.351562 247.679688 Z M 182.351562 247.679688 "/>
<path style=" stroke:none;fill-rule:nonzero;fill:rgb(99.609375%,35.688782%,40.388489%);fill-opacity:1;" d="M 170.140625 175.957031 C 169.160156 177.4375 167.675781 179.714844 166.417969 181.847656 C 165.308594 183.722656 166.570312 186.191406 168.75 186.246094 C 170.871094 186.304688 173.671875 185.597656 176.777344 182.800781 C 177.953125 181.742188 178.269531 180.023438 177.660156 178.566406 L 176.835938 176.601562 C 176.214844 175.121094 174.738281 174.1875 173.132812 174.265625 C 171.925781 174.320312 170.8125 174.949219 170.140625 175.957031 Z M 170.140625 175.957031 "/>
<path style=" stroke:none;fill-rule:nonzero;fill:rgb(99.609375%,99.609375%,99.609375%);fill-opacity:1;" d="M 134.867188 283.542969 C 133.824219 280.242188 130.175781 278.554688 126.984375 279.890625 L 126.816406 279.960938 C 123.566406 279.960938 123.472656 277.292969 124.335938 274.390625 C 124.804688 272.8125 124.492188 271.117188 123.554688 269.769531 C 117.179688 260.585938 108.125 253.410156 97.523438 249.367188 C 94.765625 248.316406 91.6875 248.71875 89.113281 250.167969 C 87.058594 251.324219 84.789062 251.957031 82.515625 251.371094 C 80.464844 250.839844 79.074219 249.941406 78.136719 248.921875 C 76.382812 247.007812 73.960938 245.785156 71.382812 246.070312 C 63.617188 246.933594 56.335938 249.382812 49.867188 253.09375 C 37.625 260.113281 31.214844 274.285156 33.53125 288.210938 C 33.570312 288.457031 33.613281 288.703125 33.65625 288.949219 C 38.90625 318.507812 63.886719 341.035156 93.808594 343.320312 C 94.472656 343.371094 95.136719 343.414062 95.796875 343.445312 C 110.671875 344.140625 124.539062 335.472656 129.855469 321.550781 C 132.21875 315.359375 133.515625 308.640625 133.515625 301.617188 L 133.515625 301.492188 C 133.515625 300.039062 132.554688 298.757812 131.167969 298.308594 C 127.769531 297.21875 127.871094 295.820312 128.40625 294.3125 C 128.621094 293.707031 130.53125 291.574219 132.554688 290.179688 C 134.699219 288.707031 135.648438 286.023438 134.867188 283.542969 Z M 134.867188 283.542969 "/>
</g>
</svg>
