<?xml version="1.0" encoding="UTF-8"?>
<svg xmlns="http://www.w3.org/2000/svg" xmlns:xlink="http://www.w3.org/1999/xlink" width="375pt" height="374.999991pt" viewBox="0 0 375 374.999991" version="1.2">
<defs>
<clipPath id="clip1">
  <path d="M 21 0 L 374.695312 0 L 374.695312 353 L 21 353 Z M 21 0 "/>
</clipPath>
</defs>
<g id="surface1">
<rect x="0" y="0" width="375" height="374.999991" style="fill:rgb(100%,100%,100%);fill-opacity:1;stroke:none;"/>
<rect x="0" y="0" width="375" height="374.999991" style="fill:rgb(100%,100%,100%);fill-opacity:1;stroke:none;"/>
<rect x="0" y="0" width="375" height="374.999991" style="fill:rgb(54.508972%,84.709167%,92.939758%);fill-opacity:1;stroke:none;"/>
<g clip-path="url(#clip1)" clip-rule="nonzero">
<path style=" stroke:none;fill-rule:nonzero;fill:rgb(18.03894%,18.429565%,32.939148%);fill-opacity:1;" d="M 301.59375 139.144531 C 297.675781 126.046875 374.695312 0.00390625 374.695312 0.00390625 C 374.695312 0.00390625 192.488281 107.789062 183.503906 103.402344 C 168.855469 96.253906 187.070312 62.816406 187.070312 62.816406 L 57.484375 172.058594 C 55.570312 173.707031 53.714844 175.429688 51.90625 177.242188 C 11.710938 217.4375 11.710938 282.601562 51.90625 322.785156 C 92.101562 362.980469 157.265625 362.980469 197.453125 322.785156 C 201.8125 318.425781 209.128906 308.871094 209.128906 308.871094 L 330.578125 147.054688 C 330.578125 147.054688 305.191406 151.214844 301.59375 139.144531 Z M 176.609375 301.910156 C 147.894531 330.625 101.34375 330.625 72.628906 301.910156 C 43.914062 273.203125 43.914062 226.644531 72.628906 197.929688 C 101.34375 169.214844 147.894531 169.214844 176.609375 197.929688 C 205.324219 226.644531 205.324219 273.203125 176.609375 301.910156 Z M 176.609375 301.910156 "/>
</g>
</g>
</svg>
